<svg xmlns="http://www.w3.org/2000/svg" width="744" height="721" viewBox="0 0 744 721">
  <g transform="translate(6277 -6246)">
    <g transform="translate(-6367.054 6970.289)">
      <path d="M483.656-618.812c67.119,6.192,128.047,37.275,171.266,87.3,31.207,36.284,49.163,74.054,59.318,125.075,3.1,15.727,3.22,69.1,0,85.571-5.573,29.473-15.6,57.832-28.854,81.608-11.765,20.928-34.179,50.525-36.408,48.049-.619-.5-13.622-24.4-29.1-53S577.4-322.718,559.816-355.04c-49.782-91.763-87.057-160.74-92.258-170.647-2.724-4.83-5.2-8.916-5.573-8.916s-11.022,19.319-23.9,43.1c-93,172.257-162.722,300.181-163.712,300.428-1.734.248-15.851-17.089-24.644-30.216-19.566-29.226-31.826-59.194-39.38-96.964-2.477-12.26-2.848-17.461-2.848-45.448,0-34.055.743-39.752,8.049-67.615,13.87-52.259,46.067-100.555,90.4-135.106C355.485-605.066,421.614-624.509,483.656-618.812Zm3.715,316.651c13.5,25.139,38.885,72.073,56.47,104.394s32.2,59.689,32.693,60.8c1.61,4.21-36.284,18.576-63.157,24.024-44.21,9.04-91.268,6.068-132.505-8.049-14.489-5.077-34.055-13.374-34.055-14.613,0-1.114,114.549-212.009,115.168-212.009C462.356-347.61,473.749-327.177,487.371-302.162Z" fill="white"/>
    </g>
  </g>
</svg>
